<svg width="24" height="25" viewBox="0 0 24 25" xmlns="http://www.w3.org/2000/svg">
<path d="M21 5.60059C21 4.49759 20.103 3.60059 19 3.60059H5C3.897 3.60059 3 4.49759 3 5.60059V19.6006C3 20.7036 3.897 21.6006 5 21.6006H19C20.103 21.6006 21 20.7036 21 19.6006V5.60059ZM5 19.6006V5.60059H19L19.002 19.6006H5Z" fill="#7E94B5"/>
<path d="M7 7.60059H8.998V9.60059H7V7.60059ZM11 7.60059H17V9.60059H11V7.60059ZM7 11.6006H8.998V13.6006H7V11.6006ZM11 11.6006H17V13.6006H11V11.6006ZM7 15.6006H8.998V17.6006H7V15.6006ZM11 15.6006H17V17.6006H11V15.6006Z" fill="#7E94B5"/>
</svg>
