<svg width="20" height="20" viewBox="0 0 20 20"  xmlns="http://www.w3.org/2000/svg">
<path d="M16.6667 1.66663H6.66667C5.7475 1.66663 5 2.41413 5 3.33329V13.3333C5 14.2525 5.7475 15 6.66667 15H16.6667C17.5858 15 18.3333 14.2525 18.3333 13.3333V3.33329C18.3333 2.41413 17.5858 1.66663 16.6667 1.66663ZM6.66667 13.3333V3.33329H16.6667L16.6683 13.3333H6.66667Z" fill="white"/>
<path d="M3.33335 6.66667H1.66669V16.6667C1.66669 17.5858 2.41419 18.3333 3.33335 18.3333H13.3334V16.6667H3.33335V6.66667ZM12.5 5H10.8334V7.5H8.33335V9.16667H10.8334V11.6667H12.5V9.16667H15V7.5H12.5V5Z" fill="white"/>
</svg>
