<svg width="81" height="41" viewBox="0 0 81 41" xmlns="http://www.w3.org/2000/svg">
<g clip-path="url(#clip0_804_7828)">
<path d="M76.2952 21.2712C74.7228 20.5303 73.525 19.1835 72.8555 17.5795C71.3064 13.8684 67.6439 11.2599 63.3711 11.2599C59.0981 11.2599 55.4358 13.8684 53.8867 17.5795C53.2172 19.1835 52.0194 20.5303 50.447 21.2712C47.9684 22.4392 46.2422 24.9642 46.2422 27.8732C46.2422 31.8842 49.5237 35.1657 53.5347 35.1657H73.2077C77.2186 35.1657 80.5002 31.8842 80.5002 27.8732C80.5 24.9642 78.7737 22.4392 76.2952 21.2712Z" fill="#EBE9FF"/>
<path d="M65.9467 29.7728C65.9467 29.3151 66.0042 28.8711 66.1114 28.4469C62.3522 27.4723 59.5759 24.057 59.5759 19.993C59.5759 15.9897 62.2706 12.618 65.9443 11.5865C65.1218 11.3744 64.2598 11.2598 63.3709 11.2598C59.0979 11.2598 55.4356 13.8681 53.8865 17.5794C53.217 19.1834 52.0192 20.5301 50.4468 21.2711C47.9683 22.439 46.242 24.964 46.242 27.8731C46.242 31.884 49.5236 35.1656 53.5345 35.1656H71.3395C68.3611 35.1658 65.9467 32.7512 65.9467 29.7728Z" fill="#D5D5F5"/>
<path d="M57.8786 16.2365C55.5763 15.4178 54.4867 12.7878 55.536 10.5808C57.2019 7.07622 53.5458 3.42013 50.0411 5.08591C49.0533 5.55544 47.9811 5.59544 47.0241 5.29122C39.406 7.267 35.671 14.2517 35.671 20.1218C35.671 25.992 40.4999 32.9978 47.0241 34.9525C47.9811 34.6483 49.0533 34.6882 50.0411 35.1578C53.5456 36.8237 57.2017 33.1676 55.536 29.6629C54.4869 27.4559 55.5763 24.8259 57.8786 24.0072C61.5347 22.7072 61.5347 17.5367 57.8786 16.2365Z" fill="#FFBA66"/>
<path d="M30.5531 21.2712C28.9808 20.5303 27.783 19.1835 27.1134 17.5795C25.5644 13.8684 21.9019 11.2599 17.6291 11.2599C13.3562 11.2599 9.69375 13.8684 8.14469 17.5795C7.47516 19.1835 6.27734 20.5303 4.705 21.2712C2.22625 22.4392 0.5 24.9642 0.5 27.8731C0.5 31.884 3.78156 35.1656 7.7925 35.1656H27.4655C31.4764 35.1656 34.758 31.884 34.758 27.8731C34.758 24.9642 33.0319 22.4392 30.5531 21.2712Z" fill="#EBE9FF"/>
<path d="M20.2047 29.7728C20.2047 29.3151 20.2622 28.8711 20.3694 28.4469C16.6102 27.4723 13.8339 24.057 13.8339 19.993C13.8339 15.9897 16.5286 12.618 20.2023 11.5865C19.3798 11.3744 18.5178 11.2598 17.6289 11.2598C13.3559 11.2598 9.69359 13.8681 8.14453 17.5794C7.475 19.1834 6.27719 20.5301 4.70484 21.2711C2.22625 22.4392 0.5 24.9642 0.5 27.8731C0.5 31.884 3.78156 35.1656 7.7925 35.1656H25.5975C22.6192 35.1658 20.2047 32.7512 20.2047 29.7728Z" fill="#D5D5F5"/>
<path d="M40.5 20.122C40.5 14.2512 43.015 8.96826 47.0256 5.29013C45.8442 4.91482 44.8378 4.0156 44.3855 2.74341C43.0853 -0.912681 37.9148 -0.912681 36.6147 2.74341C35.7959 5.04576 33.1659 6.13513 30.9589 5.08607C27.4544 3.42013 23.7983 7.07623 25.4641 10.5809C26.5131 12.7879 25.4237 15.4179 23.1214 16.2367C19.4653 17.5368 19.4653 22.7073 23.1214 24.0075C25.4237 24.8262 26.5131 27.4562 25.4641 29.6633C23.7981 33.1678 27.4542 36.8239 30.9589 35.1581C33.1659 34.109 35.7959 35.1984 36.6147 37.5008C37.9148 41.1569 43.0853 41.1569 44.3855 37.5008C44.8378 36.2286 45.8442 35.3295 47.0256 34.954C43.015 31.2758 40.5 25.9928 40.5 20.122Z" fill="#FFB051"/>
<path d="M42.4828 11.4028C38.9995 13.5311 36.4758 16.9979 36.4758 20.122C36.4758 23.2461 39.1767 27.0432 42.4828 28.8412C46.4669 27.9389 49.4425 24.379 49.4425 20.122C49.4425 15.865 46.467 12.3051 42.4828 11.4028Z" fill="#F8E878"/>
<path d="M40.5 11.1793C35.5612 11.1793 31.5575 15.1831 31.5575 20.1218C31.5575 25.0606 35.5612 29.0643 40.5 29.0643C41.1817 29.0643 41.8448 28.9854 42.4828 28.8409C41.2122 26.2031 40.5 23.2457 40.5 20.1217C40.5 16.9976 41.2122 14.0403 42.4828 11.4024C41.8448 11.2582 41.1817 11.1793 40.5 11.1793Z" fill="#FFCB6B"/>
</g>
<defs>
<clipPath id="clip0_804_7828">
<rect width="81" height="41" fill="white"/>
</clipPath>
</defs>
</svg>
