<svg width="25" height="25" viewBox="0 0 25 25" xmlns="http://www.w3.org/2000/svg">
<path d="M12.5 8.60059C11.322 8.60059 10.5 9.42259 10.5 10.6006C10.5 11.7786 11.322 12.6006 12.5 12.6006C13.678 12.6006 14.5 11.7786 14.5 10.6006C14.5 9.42259 13.678 8.60059 12.5 8.60059Z" fill="#7E94B5"/>
<path d="M13.5 17.1726H11.5C10.068 17.1726 8.87097 18.1826 8.57397 19.5266C9.74197 20.2046 11.084 20.6006 12.5 20.6006C13.916 20.6006 15.258 20.2046 16.426 19.5276C16.129 18.1826 14.932 17.1726 13.5 17.1726Z" fill="#7E94B5"/>
<path d="M12.5 2.60059C7.079 2.60059 2.5 7.17959 2.5 12.6006C2.5 15.7896 4.092 18.6786 6.5 20.5246V20.6006H6.602C8.27 21.8456 10.313 22.6006 12.5 22.6006C14.687 22.6006 16.73 21.8456 18.398 20.6006H18.5V20.5246C20.908 18.6786 22.5 15.7906 22.5 12.6006C22.5 7.17959 17.921 2.60059 12.5 2.60059ZM8.574 19.5276C8.871 18.1826 10.068 17.1736 11.5 17.1736H13.5C14.932 17.1736 16.129 18.1836 16.426 19.5276C15.258 20.2046 13.916 20.6006 12.5 20.6006C11.084 20.6006 9.742 20.2046 8.574 19.5276ZM18.11 18.2416C17.353 16.4416 15.572 15.1736 13.5 15.1736H11.5C9.428 15.1736 7.646 16.4426 6.89 18.2416C5.423 16.7826 4.5 14.7766 4.5 12.6006C4.5 8.26359 8.163 4.60059 12.5 4.60059C16.837 4.60059 20.5 8.26359 20.5 12.6006C20.5 14.7766 19.577 16.7826 18.11 18.2416Z" fill="#7E94B5"/>
<path d="M12.5 6.60059C10.22 6.60059 8.5 8.32059 8.5 10.6006C8.5 12.8806 10.22 14.6006 12.5 14.6006C14.78 14.6006 16.5 12.8806 16.5 10.6006C16.5 8.32059 14.78 6.60059 12.5 6.60059ZM12.5 12.6006C11.322 12.6006 10.5 11.7786 10.5 10.6006C10.5 9.42259 11.322 8.60059 12.5 8.60059C13.678 8.60059 14.5 9.42259 14.5 10.6006C14.5 11.7786 13.678 12.6006 12.5 12.6006Z" fill="#7E94B5"/>
</svg>
