<svg width="19" height="21" viewBox="0 0 19 21" xmlns="http://www.w3.org/2000/svg">
<path d="M16.0034 11.9444V8.3584C16.0034 5.1414 13.8184 2.4314 10.8584 1.6164C10.5654 0.878398 9.84942 0.358398 9.00342 0.358398C8.15742 0.358398 7.44142 0.878398 7.14842 1.6164C4.18842 2.4324 2.00342 5.1414 2.00342 8.3584V11.9444L0.296419 13.6514C0.203376 13.7441 0.129589 13.8543 0.0793034 13.9756C0.0290181 14.097 0.00322852 14.2271 0.00341902 14.3584V16.3584C0.00341902 16.6236 0.108776 16.878 0.296312 17.0655C0.483849 17.253 0.738203 17.3584 1.00342 17.3584H17.0034C17.2686 17.3584 17.523 17.253 17.7105 17.0655C17.8981 16.878 18.0034 16.6236 18.0034 16.3584V14.3584C18.0036 14.2271 17.9778 14.097 17.9275 13.9756C17.8773 13.8543 17.8035 13.7441 17.7104 13.6514L16.0034 11.9444ZM16.0034 15.3584H2.00342V14.7724L3.71042 13.0654C3.80346 12.9727 3.87725 12.8625 3.92753 12.7412C3.97782 12.6198 4.00361 12.4897 4.00342 12.3584V8.3584C4.00342 5.6014 6.24642 3.3584 9.00342 3.3584C11.7604 3.3584 14.0034 5.6014 14.0034 8.3584V12.3584C14.0034 12.6244 14.1084 12.8784 14.2964 13.0654L16.0034 14.7724V15.3584ZM9.00342 20.3584C9.62272 20.3592 10.2269 20.167 10.7319 19.8086C11.2369 19.4501 11.6178 18.9433 11.8214 18.3584H6.18542C6.38908 18.9433 6.7699 19.4501 7.27493 19.8086C7.77996 20.167 8.38412 20.3592 9.00342 20.3584Z" fill="#063551"/>
</svg>
