<svg width="20" height="20" viewBox="0 0 20 20" fill="none" xmlns="http://www.w3.org/2000/svg">
<path d="M16.6666 4.16675H14.5116L12.2558 1.91092C12.1785 1.83338 12.0867 1.77189 11.9856 1.72999C11.8845 1.68808 11.7761 1.66659 11.6666 1.66675H8.33329C8.22384 1.66659 8.11544 1.68808 8.01432 1.72999C7.91321 1.77189 7.82138 1.83338 7.74413 1.91092L5.48829 4.16675H3.33329C2.41413 4.16675 1.66663 4.91425 1.66663 5.83342V15.0001C1.66663 15.9193 2.41413 16.6667 3.33329 16.6667H16.6666C17.5858 16.6667 18.3333 15.9193 18.3333 15.0001V5.83342C18.3333 4.91425 17.5858 4.16675 16.6666 4.16675ZM9.99996 14.1667C7.74163 14.1667 5.83329 12.2584 5.83329 10.0001C5.83329 7.74092 7.74163 5.83342 9.99996 5.83342C12.2583 5.83342 14.1666 7.74092 14.1666 10.0001C14.1666 12.2584 12.2583 14.1667 9.99996 14.1667Z" fill="#2CAF92"/>
<path d="M10.8333 7.5H9.16667V9.16667H7.5V10.8333H9.16667V12.5H10.8333V10.8333H12.5V9.16667H10.8333V7.5Z" fill="#2CAF92"/>
</svg>
