<svg width="30" height="31" viewBox="0 0 30 31"  xmlns="http://www.w3.org/2000/svg">
<path d="M25 15.6006C24.6888 15.6006 24.3963 15.6643 24.1213 15.7668L21.1238 13.3131C21.1975 13.0456 21.25 12.7681 21.25 12.4756C21.25 10.7431 19.8575 9.35059 18.125 9.35059C16.3925 9.35059 15 10.7431 15 12.4756C15 12.9706 15.125 13.4318 15.3275 13.8468L11.6913 18.1443C11.5463 18.1193 11.4013 18.1006 11.25 18.1006C11.0263 18.1006 10.815 18.1381 10.61 18.1931L7.40625 14.9893C7.4625 14.7856 7.5 14.5743 7.5 14.3506C7.5 12.9656 6.385 11.8506 5 11.8506C3.615 11.8506 2.5 12.9656 2.5 14.3506C2.5 15.7356 3.615 16.8506 5 16.8506C5.22375 16.8506 5.435 16.8131 5.64 16.7581L8.84375 19.9618C8.7875 20.1656 8.75 20.3768 8.75 20.6006C8.75 21.9856 9.865 23.1006 11.25 23.1006C12.635 23.1006 13.75 21.9856 13.75 20.6006C13.75 20.3043 13.69 20.0256 13.5963 19.7618L17.2375 15.4593C17.5213 15.5418 17.815 15.6006 18.125 15.6006C18.6388 15.6006 19.115 15.4668 19.5413 15.2493L22.54 17.7031C22.52 17.8331 22.5 17.9643 22.5 18.1006C22.5 19.4856 23.615 20.6006 25 20.6006C26.385 20.6006 27.5 19.4856 27.5 18.1006C27.5 16.7156 26.385 15.6006 25 15.6006Z" fill="#9FA9B9"/>
</svg>
