<svg width="64" height="42" viewBox="0 0 64 42" xmlns="http://www.w3.org/2000/svg">
<path d="M63.522 36.6387V6.03872C63.522 3.21672 61.043 0.938721 57.972 0.938721H6.13496C3.06396 0.938721 0.584961 3.21672 0.584961 6.03872V36.6387C0.584961 39.4607 3.06396 41.7387 6.13496 41.7387H57.972C61.043 41.7387 63.522 39.4607 63.522 36.6387ZM58.675 5.66472C59.896 6.78672 59.23 7.94272 58.564 8.52072L43.542 21.1687L57.972 34.9727C58.416 35.4487 58.712 36.1967 58.194 36.7067C57.713 37.2507 56.603 37.2167 56.122 36.8767L39.953 24.1947L32.035 30.8247L24.154 24.1947L7.98496 36.8767C7.50396 37.2167 6.39396 37.2507 5.91296 36.7067C5.39496 36.1967 5.69096 35.4487 6.13496 34.9727L20.565 21.1687L5.54296 8.52072C4.87696 7.94272 4.21096 6.78672 5.43196 5.66472C6.65296 4.54272 7.91096 5.08672 8.94696 5.90272L32.035 23.0387L55.16 5.90272C56.196 5.08672 57.454 4.54272 58.675 5.66472Z" fill="#2CAF92"/>
</svg>
