<svg width="136" height="136" viewBox="0 0 136 136" xmlns="http://www.w3.org/2000/svg">
<path fill-rule="evenodd" clip-rule="evenodd" d="M68 130.29C102.402 130.29 130.29 102.402 130.29 68C130.29 33.5981 102.402 5.70991 68 5.70991C33.5981 5.70991 5.70991 33.5981 5.70991 68C5.70991 102.402 33.5981 130.29 68 130.29ZM68 135.375C105.21 135.375 135.375 105.21 135.375 68C135.375 30.7898 105.21 0.625 68 0.625C30.7898 0.625 0.625 30.7898 0.625 68C0.625 105.21 30.7898 135.375 68 135.375Z" fill="#1ACAA3"/>
<path fill-rule="evenodd" clip-rule="evenodd" d="M79.4351 103.688C80.0856 105.089 79.4773 106.752 78.0764 107.402C71.6022 110.408 65.188 110.96 59.9326 108.548C54.6019 106.101 51.1265 100.913 49.9849 93.8723L55.5061 92.977C56.4285 98.665 59.0339 101.981 62.266 103.465C65.5733 104.983 70.2036 104.891 75.7207 102.329C77.1216 101.678 78.7846 102.287 79.4351 103.688Z" fill="#1ACAA3"/>
<path fill-rule="evenodd" clip-rule="evenodd" d="M71.8137 75.6273V64.1863H76.8986V80.7122H62.9151V75.6273H71.8137Z" fill="#1ACAA3"/>
<path d="M103.594 51.4741C103.594 54.2824 101.318 56.559 98.5094 56.559C95.7011 56.559 93.4245 54.2824 93.4245 51.4741C93.4245 48.6658 95.7011 46.3892 98.5094 46.3892C101.318 46.3892 103.594 48.6658 103.594 51.4741Z" fill="#1ACAA3"/>
<path d="M42.5754 51.4741C42.5754 54.2824 40.2989 56.559 37.4905 56.559C34.6822 56.559 32.4056 54.2824 32.4056 51.4741C32.4056 48.6658 34.6822 46.3892 37.4905 46.3892C40.2989 46.3892 42.5754 48.6658 42.5754 51.4741Z" fill="#1ACAA3"/>
</svg>
