<svg width="129" height="128" viewBox="0 0 129 128" xmlns="http://www.w3.org/2000/svg">
<g clip-path="url(#clip0_626_18353)">
<path d="M7.08286 35.1086V20.8457C7.08286 12.7892 13.2892 6.58286 21.3457 6.58286H35.6086C37.4264 6.58286 38.9 5.10923 38.9 3.29143C38.9 1.47362 37.4264 0 35.6086 0H21.3457C9.65362 0 0.5 9.15362 0.5 20.8457V35.1086C0.5 36.9264 1.97362 38.4 3.79143 38.4C5.60923 38.4 7.08286 36.9264 7.08286 35.1086Z" fill="#1ACAA3"/>
<path d="M121.917 35.1086V20.8457C121.917 12.7892 115.711 6.58286 107.654 6.58286H93.3914C91.5736 6.58286 90.1 5.10923 90.1 3.29143C90.1 1.47362 91.5736 0 93.3914 0H107.654C119.346 0 128.5 9.15362 128.5 20.8457V35.1086C128.5 36.9264 127.026 38.4 125.209 38.4C123.391 38.4 121.917 36.9264 121.917 35.1086Z" fill="#1ACAA3"/>
<path d="M7.08286 92.8914V107.154C7.08286 115.211 13.2892 121.417 21.3457 121.417H35.6086C37.4264 121.417 38.9 122.891 38.9 124.709C38.9 126.526 37.4264 128 35.6086 128H21.3457C9.65362 128 0.5 118.846 0.5 107.154V92.8914C0.5 91.0736 1.97362 89.6 3.79143 89.6C5.60923 89.6 7.08286 91.0736 7.08286 92.8914Z" fill="#1ACAA3"/>
<path d="M121.917 92.8914V107.154C121.917 115.211 115.711 121.417 107.654 121.417H93.3914C91.5736 121.417 90.1 122.891 90.1 124.709C90.1 126.526 91.5736 128 93.3914 128H107.654C119.346 128 128.5 118.846 128.5 107.154V92.8914C128.5 91.0736 127.026 89.6 125.209 89.6C123.391 89.6 121.917 91.0736 121.917 92.8914Z" fill="#1ACAA3"/>
<path d="M35.307 48.3409V57.4889C35.307 59.3824 36.7397 60.9175 38.507 60.9175C40.2743 60.9175 41.707 59.3824 41.707 57.4889V48.3409C41.707 46.4473 40.2743 44.9123 38.507 44.9123C36.7397 44.9123 35.307 46.4473 35.307 48.3409Z" fill="#1ACAA3"/>
<path d="M88.079 48.3409V57.4889C88.079 59.3824 89.5117 60.9175 91.279 60.9175C93.0463 60.9175 94.479 59.3824 94.479 57.4889V48.3409C94.479 46.4473 93.0463 44.9123 91.279 44.9123C89.5117 44.9123 88.079 46.4473 88.079 48.3409Z" fill="#1ACAA3"/>
<path d="M41.9911 94.5327C48.233 100.358 55.7926 103.298 64.5 103.298C73.2074 103.298 80.767 100.358 87.0088 94.5327C88.3688 93.2633 88.4423 91.1318 87.173 89.7718C85.9037 88.4118 83.7722 88.3383 82.4122 89.6077C77.4259 94.2615 71.5119 96.5614 64.5 96.5614C57.4881 96.5614 51.574 94.2615 46.5878 89.6077C45.2278 88.3383 43.0963 88.4118 41.827 89.7718C40.5576 91.1318 40.6311 93.2633 41.9911 94.5327Z" fill="#1ACAA3"/>
<path d="M64.5 48.2807V71.8597C64.5 73.3686 63.7625 74.1053 62.2461 74.1053H60.0088C58.1485 74.1053 56.6404 75.6134 56.6404 77.4737C56.6404 79.334 58.1485 80.8421 60.0088 80.8421H62.2461C67.4814 80.8421 71.2369 77.091 71.2369 71.8597V48.2807C71.2369 46.4204 69.7288 44.9123 67.8685 44.9123C66.0081 44.9123 64.5 46.4204 64.5 48.2807Z" fill="#1ACAA3"/>
</g>
<defs>
<clipPath id="clip0_626_18353">
<rect width="128" height="128" fill="white" transform="translate(0.5)"/>
</clipPath>
</defs>
</svg>
