<svg width="25" height="25" viewBox="0 0 25 25" xmlns="http://www.w3.org/2000/svg">
<path d="M19.5 2.60059H9.5C8.397 2.60059 7.5 3.49759 7.5 4.60059V10.6006H5.5C4.397 10.6006 3.5 11.4976 3.5 12.6006V21.6006C3.5 22.1526 3.947 22.6006 4.5 22.6006H12.5H20.5C21.053 22.6006 21.5 22.1526 21.5 21.6006V4.60059C21.5 3.49759 20.603 2.60059 19.5 2.60059ZM5.5 12.6006H8.5H11.5V14.6006V16.6006V20.6006H5.5V12.6006ZM19.5 20.6006H13.5V16.6006V14.6006V12.6006C13.5 11.4976 12.603 10.6006 11.5 10.6006H9.5V4.60059H19.5V20.6006Z" fill="#7E94B5"/>
<path d="M11.5 6.60059H13.5V8.60059H11.5V6.60059ZM15.5 6.60059H17.5V8.60059H15.5V6.60059ZM15.5 10.6316H17.5V12.6006H15.5V10.6316ZM15.5 14.6006H17.5V16.6006H15.5V14.6006ZM7.5 14.6016H9.5V16.6016H7.5V14.6016Z" fill="#7E94B5"/>
</svg>
