<svg width="69" height="60" viewBox="0 0 69 60" xmlns="http://www.w3.org/2000/svg">
<path d="M61.5 0.833374H7.5C3.7875 0.833374 0.78375 3.45837 0.78375 6.66671L0.75 59.1667L14.25 47.5H61.5C65.2125 47.5 68.25 44.875 68.25 41.6667V6.66671C68.25 3.45837 65.2125 0.833374 61.5 0.833374ZM17.625 21.25H51.375C53.2313 21.25 54.75 22.5625 54.75 24.1667C54.75 25.7709 53.2313 27.0834 51.375 27.0834H17.625C15.7688 27.0834 14.25 25.7709 14.25 24.1667C14.25 22.5625 15.7688 21.25 17.625 21.25ZM37.875 35.8334H17.625C15.7688 35.8334 14.25 34.5209 14.25 32.9167C14.25 31.3125 15.7688 30 17.625 30H37.875C39.7313 30 41.25 31.3125 41.25 32.9167C41.25 34.5209 39.7313 35.8334 37.875 35.8334ZM51.375 18.3334H17.625C15.7688 18.3334 14.25 17.0209 14.25 15.4167C14.25 13.8125 15.7688 12.5 17.625 12.5H51.375C53.2313 12.5 54.75 13.8125 54.75 15.4167C54.75 17.0209 53.2313 18.3334 51.375 18.3334Z" fill="#2CAF92"/>
</svg>
