<svg width="31" height="31" viewBox="0 0 31 31" xmlns="http://www.w3.org/2000/svg">
<path d="M4.24999 16.8506H5.49999V19.3506V25.6006C5.49999 26.9793 6.62124 28.1006 7.99999 28.1006H23C24.3787 28.1006 25.5 26.9793 25.5 25.6006V19.3506V16.8506H26.75C27.255 16.8506 27.7125 16.5456 27.905 16.0793C28.0987 15.6118 27.9912 15.0743 27.6337 14.7168L16.3837 3.46684C15.895 2.97809 15.105 2.97809 14.6162 3.46684L3.36624 14.7168C3.00874 15.0743 2.90124 15.6118 3.09499 16.0793C3.28874 16.5456 3.74499 16.8506 4.24999 16.8506Z" fill="#9FA9B9"/>
<path d="M15.5 21.8506C18.2575 21.8506 20.5 19.6081 20.5 16.8506C20.5 14.0931 18.2575 11.8506 15.5 11.8506C12.7425 11.8506 10.5 14.0931 10.5 16.8506C10.5 19.6081 12.7425 21.8506 15.5 21.8506ZM15.5 14.3506C16.8787 14.3506 18 15.4718 18 16.8506C18 18.2293 16.8787 19.3506 15.5 19.3506C14.1212 19.3506 13 18.2293 13 16.8506C13 15.4718 14.1212 14.3506 15.5 14.3506Z" fill="#ffffff"/>
</svg>
