<svg width="12" height="15" viewBox="0 0 12 15" xmlns="http://www.w3.org/2000/svg">
<path d="M0.600098 11.5597C0.600098 13.0513 2.0175 14.3597 3.6335 14.3597H8.3667C9.9827 14.3597 11.4001 13.0513 11.4001 11.5597V7.95969C11.4001 6.46809 9.9827 5.15969 8.3667 5.15969H3.8001V3.75969C3.8001 2.63829 4.6331 1.75969 5.6963 1.75969H6.3037C7.3671 1.75969 8.2001 2.63829 8.2001 3.75969C8.2001 4.09109 8.4687 4.35969 8.8001 4.35969C9.1315 4.35969 9.4001 4.09109 9.4001 3.75969C9.4001 1.96529 8.0401 0.559692 6.3039 0.559692H5.6965C3.9601 0.559692 2.6001 1.96529 2.6001 3.75969V5.34429C1.4587 5.75349 0.600098 6.79969 0.600098 7.95969V11.5597ZM6.0001 8.13469C6.5311 8.13469 6.9631 8.56669 6.9631 9.09769C6.9631 9.37509 6.8425 9.63749 6.6361 9.81949V10.7485C6.6361 11.0993 6.3507 11.3847 6.0001 11.3847C5.6495 11.3847 5.3641 11.0993 5.3641 10.7485V9.81969C5.1577 9.63769 5.0371 9.37509 5.0371 9.09789C5.0371 8.56669 5.4691 8.13469 6.0001 8.13469Z" fill="white"/>
</svg>
