<svg width="55" height="54" viewBox="0 0 55 54" xmlns="http://www.w3.org/2000/svg">
<path d="M49.0775 5.10122C48.6354 4.65617 48.0774 4.34391 47.4669 4.19987C46.8564 4.05582 46.2177 4.08574 45.6233 4.28624L7.34558 17.0454C6.66516 17.272 6.07463 17.7095 5.65963 18.2944C5.24463 18.8793 5.02675 19.5812 5.03759 20.2983C5.04842 21.0153 5.28742 21.7103 5.7199 22.2824C6.15238 22.8545 6.75586 23.2739 7.44281 23.4799L24.4621 28.5861C24.7296 28.6659 24.973 28.811 25.1704 29.0083C25.3678 29.2057 25.5129 29.4491 25.5926 29.7166L30.6979 46.7351C30.9019 47.4229 31.3207 48.0275 31.893 48.4603C32.4653 48.893 33.161 49.1313 33.8784 49.1403L33.9312 49.1411C34.6398 49.1427 35.3307 48.9204 35.9055 48.5059C36.4802 48.0914 36.9093 47.506 37.1315 46.8331L49.8915 8.55532C50.0921 7.96102 50.1222 7.3224 49.9783 6.71189C49.8344 6.10138 49.5223 5.5434 49.0775 5.10122ZM33.9312 45.766L28.8258 28.7468C28.741 28.5061 28.6379 28.2722 28.5173 28.0473L38.4383 18.1258C38.595 17.9691 38.7193 17.7831 38.8041 17.5784C38.8889 17.3737 38.9325 17.1543 38.9325 16.9327C38.9325 16.7111 38.8889 16.4917 38.8041 16.287C38.7193 16.0823 38.595 15.8962 38.4383 15.7396C38.2816 15.5829 38.0956 15.4586 37.8909 15.3738C37.6862 15.289 37.4668 15.2454 37.2452 15.2454C37.0236 15.2454 36.8042 15.289 36.5995 15.3738C36.3948 15.4586 36.2088 15.5829 36.0521 15.7396L26.1313 25.661C25.9063 25.5406 25.6725 25.4376 25.4318 25.3529L8.41265 20.2475L46.6912 7.48743L33.9312 45.766ZM6.37579 40.0633C6.05936 40.3797 5.63018 40.5575 5.18268 40.5575C4.73517 40.5575 4.306 40.3797 3.98957 40.0633C3.67313 39.7469 3.49536 39.3177 3.49536 38.8702C3.49536 38.4227 3.67313 37.9935 3.98957 37.6771L12.4271 29.2396C12.7435 28.9231 13.1727 28.7454 13.6202 28.7454C14.0677 28.7454 14.4969 28.9231 14.8133 29.2396C15.1297 29.556 15.3075 29.9852 15.3075 30.4327C15.3075 30.8802 15.1297 31.3094 14.8133 31.6258L6.37579 40.0633ZM24.9383 39.3646C25.095 39.5212 25.2194 39.7072 25.3042 39.9119C25.389 40.1166 25.4327 40.3361 25.4327 40.5577C25.4327 40.7793 25.389 40.9987 25.3042 41.2034C25.2194 41.4081 25.095 41.5941 24.9383 41.7508L16.5008 50.1883C16.3441 50.345 16.1581 50.4693 15.9534 50.5541C15.7487 50.6389 15.5293 50.6825 15.3077 50.6825C15.0861 50.6825 14.8667 50.6389 14.662 50.5541C14.4573 50.4693 14.2712 50.345 14.1146 50.1883C13.9579 50.0316 13.8336 49.8456 13.7488 49.6409C13.664 49.4362 13.6204 49.2168 13.6204 48.9952C13.6204 48.7736 13.664 48.5542 13.7488 48.3495C13.8336 48.1448 13.9579 47.9587 14.1146 47.8021L22.5521 39.3646C22.7087 39.2078 22.8947 39.0835 23.0994 38.9987C23.3042 38.9138 23.5236 38.8702 23.7452 38.8702C23.9668 38.8702 24.1862 38.9138 24.3909 38.9987C24.5956 39.0835 24.7816 39.2078 24.9383 39.3646ZM16.4513 39.9974L8.07153 48.4926C7.91592 48.6503 7.73077 48.7759 7.52664 48.8621C7.3225 48.9483 7.10339 48.9935 6.88181 48.995C6.66022 48.9965 6.44051 48.9544 6.23521 48.871C6.02991 48.7876 5.84304 48.6646 5.68527 48.509C5.52751 48.3534 5.40194 48.1682 5.31573 47.9641C5.22953 47.76 5.18437 47.5409 5.18284 47.3193C5.18132 47.0977 5.22345 46.878 5.30683 46.6727C5.39022 46.4674 5.51323 46.2805 5.66883 46.1227L14.0487 37.6276C14.3632 37.3106 14.7907 37.1312 15.2373 37.1288C15.6839 37.1264 16.1132 37.3012 16.4312 37.6148C16.7492 37.9284 16.9299 38.3553 16.9336 38.8019C16.9374 39.2485 16.764 39.6784 16.4513 39.9974Z" fill="url(#paint0_linear_626_18321)"/>
<defs>
<linearGradient id="paint0_linear_626_18321" x1="3.49487" y1="27.3966" x2="50.0665" y2="27.3966" gradientUnits="userSpaceOnUse">
<stop stop-color="#10CCA2"/>
<stop offset="1" stop-color="#3FEAC4"/>
</linearGradient>
</defs>
</svg>
