<svg width="25" height="25" viewBox="0 0 25 25" xmlns="http://www.w3.org/2000/svg">
<path d="M21.5 4.60059H3.5C2.947 4.60059 2.5 5.04759 2.5 5.60059V19.6006C2.5 20.1536 2.947 20.6006 3.5 20.6006H21.5C22.053 20.6006 22.5 20.1536 22.5 19.6006V5.60059C22.5 5.04759 22.053 4.60059 21.5 4.60059ZM20.5 15.6006C18.843 15.6006 17.5 16.9436 17.5 18.6006H7.5C7.5 16.9436 6.157 15.6006 4.5 15.6006V9.60059C6.157 9.60059 7.5 8.25759 7.5 6.60059H17.5C17.5 8.25759 18.843 9.60059 20.5 9.60059V15.6006Z" fill="#7E94B5"/>
<path d="M12.5 8.60059C10.294 8.60059 8.5 10.3946 8.5 12.6006C8.5 14.8066 10.294 16.6006 12.5 16.6006C14.706 16.6006 16.5 14.8066 16.5 12.6006C16.5 10.3946 14.706 8.60059 12.5 8.60059ZM12.5 14.6006C11.397 14.6006 10.5 13.7036 10.5 12.6006C10.5 11.4976 11.397 10.6006 12.5 10.6006C13.603 10.6006 14.5 11.4976 14.5 12.6006C14.5 13.7036 13.603 14.6006 12.5 14.6006Z" fill="#7E94B5"/>
</svg>
