<svg width="24" height="25" viewBox="0 0 24 25" xmlns="http://www.w3.org/2000/svg">
<path d="M19.5 3.60059C18.121 3.60059 17 4.72159 17 6.10059C17 6.45759 17.078 6.79659 17.214 7.10559L15.259 9.30459C14.615 8.86259 13.839 8.60059 13 8.60059C12.26 8.60059 11.576 8.81659 10.981 9.16659L8.707 6.89359L8.684 6.91659C8.88 6.51859 9 6.07559 9 5.60059C9 3.94359 7.657 2.60059 6 2.60059C4.343 2.60059 3 3.94359 3 5.60059C3 7.25759 4.343 8.60059 6 8.60059C6.475 8.60059 6.917 8.48059 7.316 8.28459L7.293 8.30759L9.567 10.5806C9.215 11.1766 9 11.8616 9 12.6006C9 13.5976 9.38 14.4996 9.985 15.2016L7.408 17.7776C7.126 17.6666 6.821 17.6006 6.5 17.6006C5.122 17.6006 4 18.7216 4 20.1006C4 21.4796 5.122 22.6006 6.5 22.6006C7.878 22.6006 9 21.4796 9 20.1006C9 19.7796 8.934 19.4746 8.823 19.1916L11.661 16.3536C12.082 16.5036 12.528 16.6006 13 16.6006C15.206 16.6006 17 14.8066 17 12.6006C17 11.9646 16.837 11.3716 16.572 10.8366L18.689 8.45359C18.945 8.54159 19.215 8.60059 19.5 8.60059C20.879 8.60059 22 7.47959 22 6.10059C22 4.72159 20.879 3.60059 19.5 3.60059ZM13 14.6006C11.897 14.6006 11 13.7036 11 12.6006C11 11.4976 11.897 10.6006 13 10.6006C14.103 10.6006 15 11.4976 15 12.6006C15 13.7036 14.103 14.6006 13 14.6006Z" fill="#7E94B5"/>
</svg>
