<svg width="24" height="25" viewBox="0 0 24 25" xmlns="http://www.w3.org/2000/svg">
<path d="M20 4.60059H4C2.897 4.60059 2 5.49759 2 6.60059V18.6006C2 19.7036 2.897 20.6006 4 20.6006H20C21.103 20.6006 22 19.7036 22 18.6006V6.60059C22 5.49759 21.103 4.60059 20 4.60059ZM4 18.6006V6.60059H20L20.001 18.6006H4Z" fill="#7E94B5"/>
<path d="M6.5 11.6006H9.5C9.776 11.6006 10 11.3766 10 11.1006V9.10059C10 8.82459 9.776 8.60059 9.5 8.60059H6.5C6.224 8.60059 6 8.82459 6 9.10059V11.1006C6 11.3766 6.224 11.6006 6.5 11.6006ZM6 14.6006H12V16.6016H6V14.6006ZM13 14.6006H18V16.6016H13V14.6006Z" fill="#7E94B5"/>
</svg>
