<svg width="31" height="29" viewBox="0 0 31 29" xmlns="http://www.w3.org/2000/svg">
<path fill-rule="evenodd" clip-rule="evenodd" d="M6.5 3.60059H25.5C26.6046 3.60059 27.5 4.49602 27.5 5.60059V24.6006C27.5 25.7052 26.6046 26.6006 25.5 26.6006H6.5C5.39543 26.6006 4.5 25.7052 4.5 24.6006V5.60059C4.5 4.49602 5.39543 3.60059 6.5 3.60059ZM13.35 8.40057C12.8806 8.40057 12.5 8.78113 12.5 9.25057C12.5 9.72002 12.8806 10.1006 13.35 10.1006H23.65C24.1194 10.1006 24.5 9.72002 24.5 9.25057C24.5 8.78113 24.1194 8.40057 23.65 8.40057H13.35ZM13.35 14.4006C12.8806 14.4006 12.5 14.7811 12.5 15.2506C12.5 15.72 12.8806 16.1006 13.35 16.1006H23.65C24.1194 16.1006 24.5 15.72 24.5 15.2506C24.5 14.7811 24.1194 14.4006 23.65 14.4006H13.35ZM13.35 20.4006C12.8806 20.4006 12.5 20.7811 12.5 21.2506C12.5 21.72 12.8806 22.1006 13.35 22.1006H23.65C24.1194 22.1006 24.5 21.72 24.5 21.2506C24.5 20.7811 24.1194 20.4006 23.65 20.4006H13.35ZM8.75 10.3006C9.44036 10.3006 10 9.74095 10 9.0506C10 8.36024 9.44036 7.8006 8.75 7.8006C8.05964 7.8006 7.5 8.36024 7.5 9.0506C7.5 9.74095 8.05964 10.3006 8.75 10.3006ZM8.75 16.3006C9.44036 16.3006 10 15.741 10 15.0506C10 14.3602 9.44036 13.8006 8.75 13.8006C8.05964 13.8006 7.5 14.3602 7.5 15.0506C7.5 15.741 8.05964 16.3006 8.75 16.3006ZM8.75 22.3006C9.44036 22.3006 10 21.741 10 21.0506C10 20.3602 9.44036 19.8006 8.75 19.8006C8.05964 19.8006 7.5 20.3602 7.5 21.0506C7.5 21.741 8.05964 22.3006 8.75 22.3006Z" fill="#9FA9B9"/>
</svg>
