<svg width="88" height="97" viewBox="0 0 88 97" xmlns="http://www.w3.org/2000/svg">
<path d="M71.8473 12.4969C71.464 12.4969 71.0807 12.4011 70.7453 12.2094C61.5453 7.46567 53.5911 5.45317 44.0557 5.45317C34.5682 5.45317 25.5598 7.70525 17.3661 12.2094C16.2161 12.8323 14.7786 12.4011 14.1078 11.2511C13.4848 10.1011 13.9161 8.61567 15.0661 7.99275C23.9786 3.15317 33.7536 0.661499 44.0557 0.661499C54.2619 0.661499 63.1744 2.91358 72.9494 7.94483C74.1473 8.56775 74.5786 10.0052 73.9557 11.1552C73.5244 12.0178 72.7098 12.4969 71.8473 12.4969V12.4969ZM3.27858 37.6532C2.79942 37.6532 2.32025 37.5094 1.889 37.2219C0.786918 36.4553 0.547334 34.9698 1.314 33.8678C6.05775 27.1594 12.0953 21.8886 19.2828 18.199C34.3286 10.4365 53.5911 10.3886 68.6848 18.1511C75.8723 21.8407 81.9098 27.0636 86.6536 33.724C87.4203 34.7782 87.1807 36.3115 86.0786 37.0782C84.9765 37.8448 83.4911 37.6052 82.7244 36.5032C78.4119 30.4657 72.9494 25.7219 66.4807 22.4157C52.7286 15.3719 35.1432 15.3719 21.439 22.4636C14.9223 25.8178 9.45983 30.6094 5.14733 36.6469C4.764 37.3178 4.04525 37.6532 3.27858 37.6532V37.6532ZM33.2265 95.4886C32.6036 95.4886 31.9807 95.249 31.5494 94.7698C27.3807 90.6011 25.1286 87.9178 21.9182 82.1198C18.6119 76.2261 16.8869 69.0386 16.8869 61.324C16.8869 47.0928 29.0578 35.4969 44.0078 35.4969C58.9578 35.4969 71.1286 47.0928 71.1286 61.324C71.1286 62.6657 70.0744 63.7198 68.7328 63.7198C67.3911 63.7198 66.3369 62.6657 66.3369 61.324C66.3369 49.7282 56.3223 40.2886 44.0078 40.2886C31.6932 40.2886 21.6786 49.7282 21.6786 61.324C21.6786 68.224 23.2119 74.5969 26.1348 79.7719C29.2015 85.2823 31.3098 87.6303 34.9994 91.3678C35.9098 92.3261 35.9098 93.8115 34.9994 94.7698C34.4723 95.249 33.8494 95.4886 33.2265 95.4886ZM67.5828 86.624C61.8807 86.624 56.8494 85.1865 52.7286 82.3594C45.589 77.5198 41.3244 69.6615 41.3244 61.324C41.3244 59.9823 42.3786 58.9282 43.7203 58.9282C45.0619 58.9282 46.1161 59.9823 46.1161 61.324C46.1161 68.0803 49.5661 74.4532 55.4119 78.3823C58.814 80.6823 62.7911 81.7844 67.5828 81.7844C68.7328 81.7844 70.6494 81.6407 72.5661 81.3053C73.8598 81.0657 75.1057 81.9282 75.3453 83.2698C75.5848 84.5636 74.7223 85.8094 73.3807 86.049C70.6494 86.5761 68.2536 86.624 67.5828 86.624V86.624ZM57.9515 96.4948C57.7598 96.4948 57.5203 96.4469 57.3286 96.399C49.7098 94.2907 44.7265 91.4636 39.5036 86.3365C32.7953 79.6761 29.1057 70.8115 29.1057 61.324C29.1057 53.5615 35.7182 47.2365 43.864 47.2365C52.0098 47.2365 58.6223 53.5615 58.6223 61.324C58.6223 66.4511 63.0786 70.6198 68.589 70.6198C74.0994 70.6198 78.5557 66.4511 78.5557 61.324C78.5557 43.2594 62.9828 28.5969 43.8161 28.5969C30.2078 28.5969 17.7494 36.1677 12.1432 47.9073C10.2744 51.7886 9.31609 56.3407 9.31609 61.324C9.31609 65.0615 9.6515 70.9553 12.5265 78.6219C13.0057 79.8678 12.3828 81.2573 11.1369 81.6886C9.89108 82.1678 8.5015 81.4969 8.07025 80.299C5.72233 74.0219 4.57233 67.7928 4.57233 61.324C4.57233 55.574 5.67442 50.3511 7.83067 45.799C14.2036 32.4303 28.339 23.7573 43.8161 23.7573C65.6182 23.7573 83.3473 40.5761 83.3473 61.2761C83.3473 69.0386 76.7348 75.3636 68.589 75.3636C60.4432 75.3636 53.8307 69.0386 53.8307 61.2761C53.8307 56.149 49.3744 51.9803 43.864 51.9803C38.3536 51.9803 33.8973 56.149 33.8973 61.2761C33.8973 69.4698 37.0598 77.1365 42.8578 82.8865C47.4098 87.3907 51.7703 89.8823 58.5265 91.7511C59.8203 92.0865 60.539 93.4282 60.2036 94.674C59.964 95.7761 58.9578 96.4948 57.9515 96.4948V96.4948Z" fill="#1ACAA3"/>
</svg>
